<svg width="32" height="32" viewBox="0 0 32 32" fill="none" xmlns="http://www.w3.org/2000/svg">
<path d="M15.9997 10.6668C13.053 10.6668 10.6663 13.0535 10.6663 16.0001C10.6663 18.9468 13.053 21.3335 15.9997 21.3335C18.9463 21.3335 21.333 18.9468 21.333 16.0001C21.333 13.0535 18.9463 10.6668 15.9997 10.6668ZM27.9197 14.6668C27.6177 11.963 26.4052 9.44222 24.4814 7.51843C22.5576 5.59464 20.0368 4.38219 17.333 4.08017V2.66684C17.333 1.9335 16.733 1.3335 15.9997 1.3335C15.2663 1.3335 14.6663 1.9335 14.6663 2.66684V4.08017C11.9625 4.38219 9.44172 5.59464 7.51793 7.51843C5.59414 9.44222 4.38169 11.963 4.07967 14.6668H2.66634C1.93301 14.6668 1.33301 15.2668 1.33301 16.0001C1.33301 16.7335 1.93301 17.3335 2.66634 17.3335H4.07967C4.38169 20.0373 5.59414 22.5581 7.51793 24.4819C9.44172 26.4057 11.9625 27.6181 14.6663 27.9201V29.3335C14.6663 30.0668 15.2663 30.6668 15.9997 30.6668C16.733 30.6668 17.333 30.0668 17.333 29.3335V27.9201C20.0368 27.6181 22.5576 26.4057 24.4814 24.4819C26.4052 22.5581 27.6177 20.0373 27.9197 17.3335H29.333C30.0663 17.3335 30.6663 16.7335 30.6663 16.0001C30.6663 15.2668 30.0663 14.6668 29.333 14.6668H27.9197ZM15.9997 25.3335C10.8397 25.3335 6.66634 21.1601 6.66634 16.0001C6.66634 10.8401 10.8397 6.66684 15.9997 6.66684C21.1597 6.66684 25.333 10.8401 25.333 16.0001C25.333 21.1601 21.1597 25.3335 15.9997 25.3335Z" fill="url(#paint0_linear_29_240)" fill-opacity="0.99"/>
<defs>
<linearGradient id="paint0_linear_29_240" x1="15.9997" y1="1.3335" x2="15.9997" y2="30.6668" gradientUnits="userSpaceOnUse">
<stop stop-color="#FF0000"/>
<stop offset="0.0001" stop-color="#F20C0C"/>
<stop offset="0.985485" stop-color="#611212"/>
<stop offset="0.9999" stop-color="#A81D1D"/>
</linearGradient>
</defs>
</svg>
