<svg width="32" height="32" viewBox="0 0 32 32" fill="none" xmlns="http://www.w3.org/2000/svg">
<path d="M23.9997 10.6668H22.6663V8.00017C22.6663 4.32017 19.6797 1.3335 15.9997 1.3335C12.3197 1.3335 9.33301 4.32017 9.33301 8.00017V10.6668H7.99967C6.53301 10.6668 5.33301 11.8668 5.33301 13.3335V26.6668C5.33301 28.1335 6.53301 29.3335 7.99967 29.3335H23.9997C25.4663 29.3335 26.6663 28.1335 26.6663 26.6668V13.3335C26.6663 11.8668 25.4663 10.6668 23.9997 10.6668ZM15.9997 22.6668C14.533 22.6668 13.333 21.4668 13.333 20.0001C13.333 18.5335 14.533 17.3335 15.9997 17.3335C17.4663 17.3335 18.6663 18.5335 18.6663 20.0001C18.6663 21.4668 17.4663 22.6668 15.9997 22.6668ZM11.9997 10.6668V8.00017C11.9997 5.78684 13.7863 4.00017 15.9997 4.00017C18.213 4.00017 19.9997 5.78684 19.9997 8.00017V10.6668H11.9997Z" fill="url(#paint0_linear_29_253)" fill-opacity="0.99"/>
<defs>
<linearGradient id="paint0_linear_29_253" x1="15.9997" y1="1.3335" x2="15.9997" y2="29.3335" gradientUnits="userSpaceOnUse">
<stop stop-color="#FF0000"/>
<stop offset="0.0001" stop-color="#F20C0C"/>
<stop offset="0.985485" stop-color="#611212"/>
<stop offset="0.9999" stop-color="#A81D1D"/>
</linearGradient>
</defs>
</svg>
