<svg width="32" height="32" viewBox="0 0 32 32" fill="none" xmlns="http://www.w3.org/2000/svg">
<path d="M8.06652 10.7334C6.32089 12.4793 5.33802 14.8457 5.33303 17.3146C5.32803 19.7835 6.30131 22.1538 8.03985 23.9068C9.99985 19.3734 13.4932 15.5868 17.8532 13.3334C14.0899 16.5177 11.5496 20.9102 10.6665 25.7601C14.1332 27.4001 18.3999 26.8001 21.2665 23.9334C25.2532 19.9468 26.3732 9.08012 26.6132 6.09345C26.6215 5.99855 26.609 5.90298 26.5764 5.81344C26.5439 5.72391 26.4921 5.64261 26.4247 5.57524C26.3574 5.50788 26.2761 5.45609 26.1865 5.42354C26.097 5.39098 26.0014 5.37843 25.9065 5.38679C22.9199 5.62679 12.0532 6.74679 8.06652 10.7334Z" fill="url(#paint0_linear_29_255)" fill-opacity="0.99"/>
<defs>
<linearGradient id="paint0_linear_29_255" x1="15.9743" y1="5.38428" x2="15.9743" y2="26.6594" gradientUnits="userSpaceOnUse">
<stop stop-color="#FF0000"/>
<stop offset="0.0001" stop-color="#F20C0C"/>
<stop offset="0.985485" stop-color="#611212"/>
<stop offset="0.9999" stop-color="#A81D1D"/>
</linearGradient>
</defs>
</svg>
